<svg width="33" height="33" viewBox="0 0 33 33" fill="none" xmlns="http://www.w3.org/2000/svg">
<path d="M23.6905 12.1343C24.5549 11.5808 25.2167 10.7621 25.5769 9.80084C25.937 8.83963 25.9761 7.78761 25.6882 6.80233C25.4004 5.81705 24.8011 4.95153 23.9802 4.33535C23.1592 3.71918 22.1607 3.38552 21.1343 3.38434H12.1343C11.1078 3.38552 10.1094 3.71918 9.2884 4.33535C8.46745 4.95153 7.86819 5.81705 7.58034 6.80233C7.2925 7.78761 7.33157 8.83963 7.6917 9.80084C8.05183 10.7621 8.71364 11.5808 9.57803 12.1343C8.89175 12.5737 8.33004 13.1822 7.94691 13.9014C7.56377 14.6206 7.37209 15.4262 7.39029 16.2409C7.4085 17.0555 7.63597 17.8518 8.05085 18.5532C8.46573 19.2545 9.05406 19.8373 9.75928 20.2456C8.99844 20.7435 8.37998 21.4306 7.96447 22.2394C7.54896 23.0482 7.35064 23.951 7.38894 24.8595C7.42724 25.768 7.70084 26.651 8.18295 27.422C8.66506 28.1929 9.33915 28.8255 10.1392 29.2576C10.9392 29.6898 11.8378 29.9067 12.7469 29.8872C13.656 29.8677 14.5444 29.6124 15.3252 29.1463C16.106 28.6803 16.7523 28.0194 17.2009 27.2285C17.6495 26.4375 17.885 25.5436 17.8843 24.6343V19.5943C18.3649 20.0517 18.936 20.4033 19.5608 20.6265C20.1856 20.8497 20.8502 20.9396 21.5118 20.8902C22.1735 20.8409 22.8174 20.6536 23.4022 20.3402C23.987 20.0268 24.4997 19.5944 24.9072 19.0709C25.3147 18.5473 25.608 17.9442 25.7682 17.3003C25.9284 16.6565 25.952 15.9862 25.8373 15.3327C25.7227 14.6793 25.4725 14.057 25.1027 13.5062C24.733 12.9553 24.2519 12.488 23.6905 12.1343ZM24.3843 8.13434C24.3843 8.99629 24.0419 9.82294 23.4324 10.4324C22.8229 11.0419 21.9962 11.3843 21.1343 11.3843H17.8843V4.88434H21.1343C21.9962 4.88434 22.8229 5.22675 23.4324 5.83624C24.0419 6.44573 24.3843 7.27238 24.3843 8.13434ZM8.88428 8.13434C8.88428 7.27238 9.22669 6.44573 9.83618 5.83624C10.4457 5.22675 11.2723 4.88434 12.1343 4.88434H16.3843V11.3843H12.1343C11.2723 11.3843 10.4457 11.0419 9.83618 10.4324C9.22669 9.82294 8.88428 8.99629 8.88428 8.13434ZM12.1343 19.3843C11.2723 19.3843 10.4457 19.0419 9.83618 18.4324C9.22669 17.8229 8.88428 16.9963 8.88428 16.1343C8.88428 15.2724 9.22669 14.4457 9.83618 13.8362C10.4457 13.2267 11.2723 12.8843 12.1343 12.8843H16.3843V19.3843H12.1343ZM16.3843 24.6343C16.3843 25.376 16.1643 26.101 15.7523 26.7177C15.3402 27.3344 14.7546 27.8151 14.0693 28.0989C13.3841 28.3827 12.6301 28.457 11.9027 28.3123C11.1753 28.1676 10.5071 27.8104 9.98263 27.286C9.45818 26.7615 9.10103 26.0934 8.95633 25.3659C8.81164 24.6385 8.8859 23.8845 9.16973 23.1993C9.45356 22.5141 9.9342 21.9284 10.5509 21.5163C11.1676 21.1043 11.8926 20.8843 12.6343 20.8843H16.3843V24.6343ZM21.1343 19.3843C20.4915 19.3843 19.8631 19.1937 19.3287 18.8366C18.7942 18.4795 18.3777 17.9719 18.1317 17.3781C17.8857 16.7842 17.8213 16.1307 17.9467 15.5003C18.0721 14.8699 18.3817 14.2908 18.8362 13.8362C19.2907 13.3817 19.8698 13.0722 20.5002 12.9468C21.1307 12.8214 21.7841 12.8857 22.378 13.1317C22.9719 13.3777 23.4794 13.7943 23.8366 14.3287C24.1937 14.8632 24.3843 15.4915 24.3843 16.1343C24.3843 16.9963 24.0419 17.8229 23.4324 18.4324C22.8229 19.0419 21.9962 19.3843 21.1343 19.3843Z" fill="white"/>
</svg>
