<?xml version="1.0" encoding="utf-8"?><svg viewBox="0 0 32 32" xmlns="http://www.w3.org/2000/svg" xmlns:xlink="http://www.w3.org/1999/xlink"><style>:root>svg{display:none}:root>svg:target{display:block}</style><svg viewBox="0 0 24 24" id="check" xmlns="http://www.w3.org/2000/svg"><g clip-path="url(#aa)"><path d="M13.125 0C6.498 0 0 5.373 0 12s6.498 12 13.125 12S24 17.502 24 10.875 19.752 0 13.125 0Zm0 22.5C7.533 22.5 2.25 16.842 2.25 11.25c0-6.12 3.408-9.375 9-9.375 5.592 0 11.344 3.656 11.344 10.875 0 5.592-3.877 9.75-9.469 9.75Z"/><path d="m4.773 10.615 2.39-1.472 4.688 6.188 7.18-7.476.742.632-7.07 9.654-7.93-7.526Z"/></g><defs><clipPath id="aa"><path fill="#fff" d="M0 0h24v24H0z"/></clipPath></defs></svg><svg fill="none" viewBox="0 0 24 24" id="copy" xmlns="http://www.w3.org/2000/svg"><g clip-path="url(#ba)"><path d="M24 0 4.924 1.192l.737 7.37H1.125L0 23.25l16.563.75-.453-6.209 6.698.49L24 0Zm-8.203 23.297L.984 21.75 2.813 9.281l2.946.26.755 7.548 8.172.598 1.11 5.61ZM8.45 16.294l-2.5-13.28 17.006-1.871-2.136 14.903-12.37.248Z" fill="#020202"/></g><defs><clipPath id="ba"><path fill="#fff" d="M0 0h24v24H0z"/></clipPath></defs></svg><svg fill="none" viewBox="0 0 24 24" id="cup" xmlns="http://www.w3.org/2000/svg"><path fill-rule="evenodd" clip-rule="evenodd" d="M24 7.938c0 3-2.654 6.125-4.5 6.125-.254 2.717-2.619 4.578-5.312 5.244v3.475l4.95.25.44.968H7.266l.691-1.532 4.903.247-.665-3.143c-2.875.068-5.635-1.258-6.232-4.377l-.268-1.4-.117-.61C3.49 13.185 0 11.375 0 8.313c0-3.375 1.693-4.188 3.781-4.188.012 0 .023 0 .034.002l.03.002-.583-3.041L20.813 0l-.345 3.696c1.847 0 3.533 1.43 3.533 4.242Zm-1.062-.282c0-2.093-1.366-3.093-2.5-3.093a.22.22 0 0 0-.031.002.299.299 0 0 1-.02.002C20.224 6.301 20 8.701 19.693 12c1.134 0 3.245-1.688 3.245-4.344ZM4.014 5.014c-.929.09-2.514.717-2.514 2.582 0 2.874 2.816 4.478 3.906 4.69L4.014 5.014Zm11.674 2.59-1.524 1.754 1.132 3.023-2.33-1.645-2.41 1.645.905-2.71-1.648-1.167 2.147-.33.83-2.485.835 2.23 2.063-.316Z" fill="#000"/></svg><svg fill="none" viewBox="0 0 20 20" id="discord" xmlns="http://www.w3.org/2000/svg"><g clip-path="url(#da)"><path d="m15.333 18-.434.505c.126.109.289.166.456.16L15.333 18Zm-1.421-2.283a.667.667 0 0 0-1.047.827l1.047-.827Zm.53-.546-.231-.624a.763.763 0 0 0-.027.009l.259.615Zm-2.317.688-.112-.659-.01.001.122.658Zm-4.138-.016-.127.653.004.001.123-.654ZM4.47 14.612l-.371.553c.014.01.029.02.044.028l.327-.581Zm-.144-.08.369-.555a.679.679 0 0 0-.072-.041l-.297.596Zm-.064-.048.47-.472a.672.672 0 0 0-.146-.11l-.324.582Zm2.872 2.027a.667.667 0 0 0-1.047-.827l1.047.827ZM4.667 18l-.022.667a.667.667 0 0 0 .463-.167l-.441-.5Zm-4-3.004H0c0 .036.002.071.008.107l.659-.107ZM2.968 3.679l-.4-.534a.667.667 0 0 0-.224.3l.624.234ZM7.458 2l.665-.063a.667.667 0 0 0-.65-.604L7.46 2Zm-.503 1.741a.667.667 0 1 0 1.328-.126l-1.328.126Zm4.701-.084a.667.667 0 0 0 1.323.17l-1.323-.17ZM12.541 2l-.014-.667a.667.667 0 0 0-.647.582l.661.085Zm4.491 1.679.624-.234a.667.667 0 0 0-.224-.3l-.4.534Zm2.301 11.317.659.107a.669.669 0 0 0 .008-.107h-.667ZM8.641 11.733l-.666-.01v.01h.666ZM15.333 18l.435-.505-.003-.003a28.311 28.311 0 0 1-.773-.69c-.433-.398-.88-.83-1.08-1.085l-1.047.827c.278.352.804.853 1.224 1.24.26.24.524.475.791.707l.013.01.004.003.436-.504Zm.582-4.328a8.506 8.506 0 0 1-1.704.875l.464 1.249a9.798 9.798 0 0 0 1.973-1.01l-.733-1.114Zm-1.73.884a9.842 9.842 0 0 1-2.172.645l.224 1.315a11.182 11.182 0 0 0 2.464-.73l-.516-1.23Zm-2.182.647a10.528 10.528 0 0 1-3.894-.016l-.245 1.31a11.86 11.86 0 0 0 4.384.016l-.245-1.31Zm-3.89-.015c-.762-.15-1.51-.368-2.233-.653l-.485 1.241c.682.267 1.506.536 2.465.72l.253-1.308Zm-2.233-.653a8.718 8.718 0 0 1-1.084-.504l-.652 1.162c.435.244.864.432 1.25.583l.486-1.241Zm-1.04-.478a1.076 1.076 0 0 0-.144-.08c-.027-.013-.015-.01 0 0l-.74 1.11c.046.03.094.057.144.081.028.013.016.01 0-.003l.74-1.108Zm-.216-.121c.04.02.077.046.11.077l-.943.943c.03.03.108.107.237.173l.596-1.193Zm-.037-.035a6.236 6.236 0 0 1-.374-.224l-.014-.01-.384.546-.382.546.002.001.002.003.01.005.028.019.1.065c.085.053.208.128.364.215l.648-1.166Zm1.501 1.784c-.203.258-.652.7-1.084 1.106-.236.22-.476.439-.717.654l-.046.042-.013.01-.001.003h-.002l.442.5.441.5.001-.001.004-.003.014-.012.048-.043c.249-.223.495-.449.74-.677.42-.395.944-.903 1.22-1.253l-1.047-.826Zm-1.4 1.648c-1.555-.049-2.37-.694-2.813-1.28a3.19 3.19 0 0 1-.551-1.168v.003l-.657.108c-.659.107-.659.105-.658.107v.008c.01.057.023.113.038.169.15.57.409 1.106.764 1.577.673.89 1.857 1.747 3.834 1.81l.043-1.334Zm-3.355-2.337c0-2.49.56-5.253 1.13-7.419a47.268 47.268 0 0 1 1.034-3.402l.09-.248.005-.014-.624-.234-.625-.234-.002.006-.005.014-.096.267a48.597 48.597 0 0 0-1.067 3.505C.591 9.444 0 12.337 0 14.996h1.333ZM3.368 4.212a7.927 7.927 0 0 1 2.867-1.373 6.352 6.352 0 0 1 1.212-.172L7.459 2l.014-.667H7.34a5.288 5.288 0 0 0-.32.022c-.371.036-.739.098-1.1.188a9.25 9.25 0 0 0-3.351 1.6l.8 1.069Zm3.427-2.15.16 1.68 1.328-.127-.16-1.678-1.328.126Zm6.184 1.765.224-1.742-1.323-.17-.224 1.742 1.323.17ZM12.54 2l.014.667h-.002a.66.66 0 0 1 .066 0 6.171 6.171 0 0 1 1.147.173 7.92 7.92 0 0 1 2.866 1.372l.8-1.067a9.249 9.249 0 0 0-3.35-1.6 7.677 7.677 0 0 0-1.1-.189c-.15-.014-.3-.021-.45-.023h-.005L12.54 2Zm4.491 1.679-.625.232.001.004.005.012.018.049.07.199c.388 1.12.734 2.256 1.036 3.402.571 2.166 1.13 4.93 1.13 7.419H20c0-2.659-.592-5.552-1.173-7.759a48.721 48.721 0 0 0-1.143-3.716l-.02-.056-.005-.013-.002-.005-.625.232Zm2.301 11.317-.657-.107v-.004l-.003.011-.013.063c-.016.06-.04.15-.081.262a3.198 3.198 0 0 1-.454.832c-.442.586-1.258 1.231-2.813 1.28l.043 1.334c1.977-.063 3.16-.92 3.834-1.808a4.526 4.526 0 0 0 .764-1.579c.013-.052.025-.104.035-.157l.003-.014v-.005c0-.001 0-.003-.658-.108ZM7.012 9.293c-1.336 0-2.297 1.156-2.297 2.44h1.333c0-.664.476-1.106.964-1.106V9.293Zm-2.297 2.44c0 1.29.981 2.44 2.297 2.44V12.84c-.476 0-.964-.445-.964-1.107H4.715Zm2.297 2.44c1.333 0 2.296-1.154 2.296-2.44H7.975c0 .667-.476 1.107-.963 1.107v1.333Zm2.295-2.426c.021-1.304-.97-2.454-2.295-2.454l-.001 1.335c.496 0 .973.45.962 1.096l1.334.023Zm3.537-2.454c-1.336.002-2.297 1.158-2.297 2.442h1.333c0-.664.476-1.107.964-1.107V9.293Zm-2.297 2.443c0 1.29.981 2.44 2.297 2.44v-1.333c-.476 0-.964-.446-.964-1.107h-1.333Zm2.297 2.44c1.333 0 2.296-1.155 2.296-2.44h-1.333c0 .667-.476 1.107-.963 1.107v1.333Zm2.296-2.44c0-1.284-.961-2.44-2.296-2.44v1.332c.487 0 .963.444.963 1.108h1.333ZM4.987 5.92c1.924-1.05 3.492-1.539 5.017-1.54 1.527 0 3.09.487 5.01 1.539l.64-1.168c-2.029-1.114-3.82-1.706-5.65-1.704-1.83 0-3.623.593-5.655 1.702l.638 1.171Z" fill="#000"/></g><defs><clipPath id="da"><path fill="#fff" d="M0 0h20v20H0z"/></clipPath></defs></svg><svg fill="none" viewBox="0 0 24 24" id="email" xmlns="http://www.w3.org/2000/svg"><path d="M17.182 3.5h-10.5a4 4 0 0 0-4 4v9a4 4 0 0 0 4 4h10.5a4 4 0 0 0 4-4v-9a4 4 0 0 0-4-4Z" stroke="#000" stroke-width="1.5"/><path d="m2.729 7.59 7.205 4.13a3.957 3.957 0 0 0 3.975 0l7.225-4.13" stroke="#000" stroke-width="1.5" stroke-linecap="round" stroke-linejoin="round"/></svg><svg fill="none" viewBox="0 0 25 24" id="email2" xmlns="http://www.w3.org/2000/svg"><g clip-path="url(#fa)"><path fill-rule="evenodd" clip-rule="evenodd" d="M24.001 22.558H1.126c-.828 0-.626-1.277-.47-1.808L4.501 7.558c0 .029.03 0 0 0 0 0 6.849-4.2 10.5-6.375 3.385 3.597 7.875 8.625 7.875 8.625.025 0 .025 0 0 0l1.5 11.25c.124.786.265 1.5-.375 1.5Zm-2.625-12s-2.546-3.222-6-7.5c-4.044 2.082-9.75 4.875-9.75 4.875-.002 0 0-.319 0 0l7.125 6 8.625-3.375Zm.429 1.982L11.25 15.433l-6-6.75-2.25 11.87c0 .693-.183.88.516.88l19.36-.75c.042-.047.374-.011.374-.506l-1.446-7.637Z" fill="#000"/></g><defs><clipPath id="fa"><path fill="#fff" transform="translate(.5)" d="M0 0h24v24H0z"/></clipPath></defs></svg><svg fill="none" viewBox="0 0 32 32" id="face" xmlns="http://www.w3.org/2000/svg"><g clip-path="url(#ga)" fill="#000"><path d="M18 0C9.164 0 0 9.164 0 18c0 8.837 8.664 14 17.5 14C26.337 32 32 24.837 32 16S26.837 0 18 0Zm-3.688 29.703C7.117 29.243 2.796 22.89 2.796 15.74c0-7.149 5.332-12.945 12.544-12.945 7.212 0 15.114 6.306 15.114 13.455 0 9.255-8.776 13.925-16.142 13.453Z"/><path d="M20.131 14.334c1.588 0 3.452-1.705 3.452-3.293s-1.781-2.457-3.369-2.457c-1.587 0-2.333 1.287-2.333 2.875s.662 2.875 2.25 2.875ZM11.547 14.834c1.633-.484 2.583-1.625 2.583-2.584 0-1.703-.88-3.084-2.583-3.084-1.702 0-3.583 2.381-3.583 4.084 0 1.703 1.333 2.25 3.583 1.584ZM6.66 23.688l.669 1.033c1.837-5.846 10.998-6.738 14.92.239l2.918-1.916c-5.667-8.417-17.203-6.419-18.507.644Z"/></g><defs><clipPath id="ga"><path fill="#fff" d="M0 0h32v32H0z"/></clipPath></defs></svg><svg fill="none" viewBox="0 0 24 24" id="files" xmlns="http://www.w3.org/2000/svg"><g clip-path="url(#ha)" fill-rule="evenodd" clip-rule="evenodd" fill="#020202"><path d="M22.875 10.688 1.125 9.562 0 24l24-.875-1.125-12.438ZM21.5 22.374l-19.156-.438-.344-10 19.75-.312-.25 10.75ZM20.81 6.877 3.817 5.989 2.91 8.101l18.266-.126-.365-1.098ZM18.063 5.199l.687-1.777H5.766l.515 1.031 11.782.746ZM16.875 1.781 15.985 0l-8.72 1.172.704.937 8.906-.328Z"/><path d="m14.86 14.906-.938.224-.099 2.566-3.73.218.354-2.69-1.166-.318-1.594 3.844 8.204.563-1.032-4.407Z"/></g><defs><clipPath id="ha"><path fill="#fff" d="M0 0h24v24H0z"/></clipPath></defs></svg><svg fill="none" viewBox="0 0 24 24" id="metamask" xmlns="http://www.w3.org/2000/svg"><path d="m20.25 9.75.75.75-1.5 1.5 1.5 4.5-.75 3.75-4.5-1.5-2.25 1.5h-3l-2.25-1.5-4.5 1.5L3 16.5 4.5 12 3 10.5l.75-.75L3 6l.75-3L9 6h6l5.25-3L21 6l-.75 3.75Z" stroke="#000" stroke-width="2"/><path d="m15 6-.75 3-.75 6h-3l-.75-6L9 6M10.5 15l-2.25 3.75M13.5 15l2.25 3.75M12 18v2.25M4.5 12l5.25-3M14.25 9l5.25 3M10.5 15l-3.75-1.5M13.5 15l3.75-1.5" stroke="#000" stroke-width="2"/></svg><svg fill="none" viewBox="0 0 24 24" id="mug" xmlns="http://www.w3.org/2000/svg"><g clip-path="url(#ja)" fill="#000"><path d="M17.427 20.519c-.268 0 .256.035 0 0Z"/><path d="m17.334 20.512.093.007-.057-.008h-.036ZM6.61 20.766l-1.875.562-.703-13.875 1.617.61.961 12.703ZM10.266 21.328l-1.592-.469.07-12.879.913.364.61 12.984ZM12.282 21.328l1.219-.281L14.72 8.344l-2.056.215-.382 12.77Z"/><path d="m18.357 7.832.16-2.676-.025-.001c.136-.25.211-.6.211-1.1 0-2.252-1.076-4.079-3.328-4.079-1.161 0-2.207.588-2.949 1.463-.905-.875-2.145-1.463-3.425-1.463a3.24 3.24 0 0 0-2.075.749C6.4.255 5.704-.024 4.828-.024c-2.12 0-4.524 1.95-4.8 4.057L0 4.03 1.734 24h15.657l.21-3.5c4.754-.12 6.122-3.381 6.328-7.792.172-3.694-2.44-4.842-5.572-4.877ZM4.079 1.476c2.226.07 3.062 1.047 3.468 2.016.272-.39.117-1.36-.306-2.159.327-.239.77-.466 1.478-.466 1.268 0 2.38.643 3.079 1.612-.254.659-.26 1.343.015 1.974-.022-.56.157-1.102.396-1.536.008-.017.018-.034.027-.05.057-.101.118-.197.18-.284l.036-.047c.043-.058.086-.112.13-.162.537-.582 1.38-.958 2.33-.958 1.626 0 2.944 1.094 2.944 2.445 0 .45-.148.868-.403 1.23L.904 4.086c.135-1.458 1.69-2.657 3.175-2.61Zm11.347 20.79-12.796.752-.427-18.05L17.5 7.13l-2.073 15.136Zm2.251-3.056.585-9.797c1.878.422 3.303 2.435 3.303 4.86-.001 2.672-1.73 4.843-3.888 4.937Z"/></g><defs><clipPath id="ja"><path fill="#fff" d="M0 0h24v24H0z"/></clipPath></defs></svg><svg fill="none" viewBox="0 0 24 24" id="next" xmlns="http://www.w3.org/2000/svg"><path fill-rule="evenodd" clip-rule="evenodd" d="m7.313 24-1.125-3 10.125-8.25-13.5-12 .75-.75 15.374 11.625L7.313 24Z" fill="#000"/></svg><svg fill="none" viewBox="0 0 24 24" id="prev" xmlns="http://www.w3.org/2000/svg"><path fill-rule="evenodd" clip-rule="evenodd" d="m16.688 24 1.125-3-10.125-8.25 13.5-12-.75-.75L5.063 11.625 16.688 24Z" fill="#000"/></svg><svg fill="none" viewBox="0 0 24 24" id="share" xmlns="http://www.w3.org/2000/svg"><path d="M21.789 22.432 2.776 23.953c-.892.043-1.77-.075-1.485-1.14l1.9-21.292C3.19.681 3.87 0 4.708 0h14.043c.84 0 1.52.681 1.52 1.521l3.036 19.39a1.52 1.52 0 0 1-1.519 1.52Zm-18.252-1.52c-.06.947.957.76 1.14.76H21.41c.772 0 .867-.483.759-.76L18.373 1.52c-.186-.693-.21-.76-.943-.76L5.543 1.9c-.733 0-1.246.26-1.246.76" fill="#000"/><path d="m8.325 7.888.83.75 2.618-2.864-.64 7.858 2.219.89-.35-8.656 1.873 2.498 1.863-.853-4.698-4.926-3.715 5.303Z" fill="#000"/></svg><svg fill="none" viewBox="0 0 24 24" id="shit" xmlns="http://www.w3.org/2000/svg"><g clip-path="url(#na)" fill="#000"><path d="M15.859 9.363ZM15.813 9.361c-.009 0-.008 0 0 0ZM20.632 15.789c.611-.682.993-1.575.993-2.563 0-3.134-2.703-3.863-2.703-3.863s2.615-5.407-6.565-5.407c-3.528 0 0-3.862 0-3.862s-5.52.76-7.724 3.862c-1.794 2.525 0 5.407 0 5.407s-3.09.801-3.09 3.863c0 .987.383 1.88.994 2.563a3.854 3.854 0 0 0-2.539 3.616 3.861 3.861 0 0 0 3.862 3.861l15.448.714c3.085.127 3.862-2.442 3.862-4.575a3.853 3.853 0 0 0-2.538-3.616ZM5.256 5.851c.868-2.512 4.64-3.093 4.64-3.093s-.381 2.07 3.233 2.362c1.685.136 2.73.786 3.152 1.567.621 1.148.014 2.7-.875 2.674l-9.952-.005s-.816-1.713-.198-3.505Zm.353 5.105 12.466-.781c1.386-.232 2.528 1.2 2.528 2.48s-1.197 2.494-2.477 2.494L6.17 14.781c-1.28 0-2.744-.562-2.744-1.84 0-1.28.918-1.894 2.183-1.985Zm12.625 11.075-14.469.394c-1.722.084-2.656-1.05-2.656-2.388 0-1.34 1.245-2.473 2.543-2.473l13.5-.978c2.16-.18 3.614.808 3.614 2.352 0 1.754-1.008 2.967-2.532 3.093Z"/></g><defs><clipPath id="na"><path fill="#fff" d="M0 0h24v24H0z"/></clipPath></defs></svg><svg fill="none" viewBox="0 0 16 16" id="shit2" xmlns="http://www.w3.org/2000/svg"><g clip-path="url(#oa)" fill="#000"><path d="m10.572 6.242-.03-.001h.03ZM10.542 6.24c-.006 0-.005 0 0 0Z"/><path d="M13.755 10.526c.407-.455.662-1.05.662-1.709 0-2.089-1.802-2.575-1.802-2.575s1.743-3.605-4.377-3.605c-2.352 0 0-2.575 0-2.575s-3.68.507-5.15 2.575c-1.195 1.684 0 3.605 0 3.605s-2.06.534-2.06 2.575c0 .659.256 1.254.663 1.709a2.57 2.57 0 0 0 .883 4.985l10.298.476c2.057.084 2.575-1.629 2.575-3.05a2.569 2.569 0 0 0-1.692-2.411Z"/></g><defs><clipPath id="oa"><path fill="#fff" d="M0 0h16v16H0z"/></clipPath></defs></svg><svg fill="none" viewBox="0 0 24 24" id="telegram" xmlns="http://www.w3.org/2000/svg"><path fill-rule="evenodd" clip-rule="evenodd" d="M5.788 14.02a.747.747 0 0 0 .132.031c.283.667.564 1.334.844 2.002.503 1.202 1.01 2.44 1.121 2.796.139.438.285.736.445.94.083.104.178.196.29.266a1.189 1.189 0 0 0 .981.097c.107-.037.21-.087.304-.15L9.91 20l2.826-1.762 3.265 2.502c.048.037.1.068.156.093.392.17.772.23 1.13.182.356-.05.639-.199.85-.368.242-.195.436-.445.564-.728l.009-.022.003-.008.002-.004v-.002l.001-.001a.752.752 0 0 0 .04-.133l2.98-15.025a.753.753 0 0 0 .014-.146c0-.44-.166-.859-.555-1.112-.334-.217-.705-.227-.94-.209-.252.02-.486.082-.643.132-.088.028-.175.06-.26.094l-.011.005-16.714 6.556-.002.001a2.521 2.521 0 0 0-.547.281c-.227.155-.75.581-.661 1.285.07.56.454.905.689 1.071.128.091.25.156.34.199.04.02.126.054.163.07l.01.003 3.169 1.066Zm14.138-9.152h-.002a.819.819 0 0 1-.026.011L3.164 11.444a.81.81 0 0 1-.026.01l-.01.003a1.1 1.1 0 0 0-.09.04.86.86 0 0 0 .086.043l3.142 1.058c.056.019.11.044.16.076l10.377-6.075.01-.005a1.998 1.998 0 0 1 .441-.199c.09-.028.357-.107.645-.014a.854.854 0 0 1 .588.689.84.84 0 0 1 .003.424c-.07.275-.262.489-.437.653-.15.14-2.096 2.016-4.015 3.868l-2.613 2.52-.465.45 5.872 4.502c.08.033.165.047.251.04a.23.23 0 0 0 .117-.052.495.495 0 0 0 .103-.12l.002-.001 2.89-14.573c-.091.022-.18.05-.267.086l-.002.001Zm-8.461 12.394-1.172-.898-.284 1.805 1.456-.907Zm-2.247-2.68 1.165-1.125 2.613-2.522.973-.938-6.52 3.817.035.082c.411.971.818 1.945 1.22 2.92l.283-1.8a.744.744 0 0 1 .231-.434Z" fill="#000"/></svg><svg fill="none" viewBox="0 0 24 24" id="ton" xmlns="http://www.w3.org/2000/svg"><path d="m21.624 6.688-8.718 13.883a1.176 1.176 0 0 1-1.994-.006L2.365 6.682A2.46 2.46 0 0 1 2 5.388a2.547 2.547 0 0 1 2.582-2.506H19.43C20.847 2.882 22 4 22 5.382c0 .46-.13.912-.377 1.306m-17.16-.464 6.36 9.805V5.235H5.128c-.658 0-.953.436-.664.989m8.712 9.805 6.36-9.805c.293-.553-.007-.989-.665-.989h-5.695v10.794Z" fill="#fff"/></svg><svg fill="none" viewBox="0 0 20 20" id="twitter" xmlns="http://www.w3.org/2000/svg"><g clip-path="url(#ra)"><mask id="rb" style="mask-type:luminance" maskUnits="userSpaceOnUse" x="0" y="0" width="20" height="20"><path d="M0 0h20v20H0V0Z" fill="#fff"/></mask><g mask="url(#rb)"><path d="M15.75.938h3.067l-6.7 7.677L20 19.063h-6.171L8.99 12.728l-5.528 6.335H.393l7.166-8.214L0 .939h6.329l4.365 5.79L15.75.937Zm-1.079 16.285h1.7L5.4 2.682H3.577l11.094 14.541Z" fill="#000"/></g></g><defs><clipPath id="ra"><path fill="#fff" d="M0 0h20v20H0z"/></clipPath></defs></svg><svg fill="none" viewBox="0 0 24 24" id="user" xmlns="http://www.w3.org/2000/svg"><path d="M17.001 12.745c1.648-1.57 2.734-3.79 2.734-6.018 0-4.13-2.973-6.727-7.102-6.727-4.13 0-7.852 2.578-7.852 7.477 0 2.42 1.027 4.566 2.704 5.932C2.895 15.204 3.47 19.724 2.859 24H21c-.288-4.344-.025-9.976-3.999-11.255ZM6.281 7.22c0-3.107 2.519-4.875 5.625-4.875 3.107 0 6.375 2.11 6.375 5.625 0 2.484-2.143 4.875-5.25 4.875-3.437 0-6.75-2.519-6.75-5.625Zm-.6 15.625c-.01-3.242-.177-7.057 2.722-8.795a6.967 6.967 0 0 0 3.48.905c1.04 0 2.052-.26 2.987-.715 2.89 1.2 4.125 2.172 4.836 7.636l-14.025.97Z" fill="#000"/></svg><svg fill="none" viewBox="0 0 25 24" id="user2" xmlns="http://www.w3.org/2000/svg"><g clip-path="url(#ta)" fill="#000"><path d="M11.475 12.516c1.279-1.22 2.121-2.94 2.121-4.67 0-3.205-2.307-5.221-5.511-5.221-3.205 0-6.094 2-6.094 5.802 0 1.879.797 3.544 2.099 4.604-3.563 1.393-3.116 4.9-3.59 8.22h14.078c-.224-3.372-.02-7.743-3.103-8.735ZM3.359 8.24c0-2.306 1.869-3.618 4.175-3.618 2.305 0 4.73 1.565 4.73 4.175 0 1.844-1.59 3.618-3.895 3.618-2.552 0-5.01-1.87-5.01-4.175ZM2.69 20.353c-.007-2.516-.137-5.477 2.112-6.825a5.406 5.406 0 0 0 2.7.701 5.3 5.3 0 0 0 2.319-.554c2.242.93 3.201 1.685 3.753 5.926l-10.884.752ZM24.195 7.887l-3.82-.012v3.75c0 .171-.207.44-.375.44l-1.137.31c-.168 0-.363-.204-.363-.375l.401-4.113H14.75V7.422c0-.171.136-.31.305-.31L19 6.832l.32-4.053c.11-.05.677-.154.68-.154.168 0 .375.204.375.375v3.75l3.375-.375c.168 0 .445.037.445.209l.305.993c0 .171-.136.31-.305.31Z"/></g><defs><clipPath id="ta"><path fill="#fff" transform="translate(.5)" d="M0 0h24v24H0z"/></clipPath></defs></svg><svg fill="none" viewBox="0 0 25 24" id="wallet" xmlns="http://www.w3.org/2000/svg"><g clip-path="url(#ua)"><path d="m22.919 13.805-.02-6.93-2.57.162L14.1 0 3.976 8.066l-2 .126L.5 22.437 22.902 23.5l.026-5.466.84.086.732-4.505-1.581.191Zm-8.2-11.492 2.969 4.968-11.94.692 8.97-5.66Zm5.726 14.364c-.4 0-.866-.46-.866-.862 0-.401.49-.564.892-.564.401 0 .54.298.54.7 0 .4-.164.726-.566.726Zm.836-2.708-3.18.422.597 3.21 2.209.243-.53 3.538-17.096.213-.406-12.47 18.906.273-.5 4.57Z" fill="#000"/></g><defs><clipPath id="ua"><path fill="#fff" transform="translate(.5)" d="M0 0h24v24H0z"/></clipPath></defs></svg><svg fill="none" viewBox="0 0 24 24" id="youtube" xmlns="http://www.w3.org/2000/svg"><path d="M12 20.5c1.81 0 3.545-.179 5.153-.507 2.01-.41 3.014-.614 3.93-1.792.917-1.179.917-2.532.917-5.238v-1.926c0-2.706 0-4.06-.917-5.238-.916-1.178-1.92-1.383-3.93-1.792A25.998 25.998 0 0 0 12 3.5c-1.81 0-3.545.179-5.153.507-2.01.41-3.014.614-3.93 1.792C2 6.978 2 8.331 2 11.037v1.926c0 2.706 0 4.06.917 5.238.916 1.178 1.92 1.383 3.93 1.792 1.608.328 3.343.507 5.153.507Z" stroke="#000" stroke-width="1.5" stroke-linecap="round" stroke-linejoin="round"/><path d="M15.962 12.313c-.148.606-.938 1.04-2.517 1.911-1.718.947-2.577 1.42-3.272 1.237a1.7 1.7 0 0 1-.635-.317C9 14.709 9 13.806 9 12s0-2.709.538-3.144c.182-.147.4-.256.635-.317.695-.183 1.554.29 3.272 1.237 1.58.87 2.369 1.305 2.517 1.911.05.206.05.42 0 .626Z" stroke="#000" stroke-width="1.5" stroke-linecap="round" stroke-linejoin="round"/></svg></svg>