<svg width="33" height="33" viewBox="0 0 33 33" fill="none" xmlns="http://www.w3.org/2000/svg">
<path d="M29.8843 18.7981C29.8843 20.7668 29.5005 22.4443 28.7743 23.6493C27.893 25.1118 26.5243 25.8843 24.8143 25.8843C21.4718 25.8843 19.0268 21.3206 16.4393 16.4881C14.2768 12.4556 11.828 7.88434 9.38428 7.88434C6.47428 7.88434 3.88428 13.9881 3.88428 18.7981C3.88428 20.4943 4.19428 21.9031 4.77928 22.8756C5.39178 23.8906 6.26678 24.3843 7.45428 24.3843C9.47428 24.3843 11.493 21.2518 13.2043 18.1881C13.3091 18.0313 13.4692 17.9197 13.6526 17.8756C13.836 17.8315 14.0293 17.8582 14.194 17.9503C14.3586 18.0424 14.4825 18.1932 14.5409 18.3725C14.5994 18.5519 14.5881 18.7467 14.5093 18.9181C12.6343 22.2881 10.3843 25.8843 7.45428 25.8843C5.74553 25.8843 4.37553 25.1118 3.49428 23.6493C2.76803 22.4443 2.38428 20.7668 2.38428 18.7981C2.38428 13.7368 5.11053 6.38434 9.38428 6.38434C12.7268 6.38434 15.1718 10.9481 17.7593 15.7806C19.9205 19.8131 22.3693 24.3843 24.8143 24.3843C26.0018 24.3843 26.8768 23.8906 27.4893 22.8756C28.0743 21.9031 28.3843 20.4943 28.3843 18.7981C28.3843 13.9881 25.7955 7.88434 22.8843 7.88434C21.7593 7.88434 20.5205 8.85434 19.1168 10.8506C19.0022 11.0134 18.8277 11.124 18.6316 11.1581C18.4355 11.1922 18.2339 11.147 18.0712 11.0325C17.9084 10.9179 17.7978 10.7434 17.7637 10.5473C17.7296 10.3512 17.7747 10.1496 17.8893 9.98684C18.978 8.44059 20.6805 6.38434 22.8843 6.38434C27.158 6.38434 29.8843 13.7368 29.8843 18.7981Z" fill="white"/>
</svg>
