<svg width="33" height="33" viewBox="0 0 33 33" fill="none" xmlns="http://www.w3.org/2000/svg">
<path d="M29.3732 14.9014L17.3732 2.90145C17.2115 2.73938 17.0194 2.61081 16.8079 2.52308C16.5964 2.43535 16.3697 2.3902 16.1407 2.3902C15.9118 2.3902 15.685 2.43535 15.4736 2.52308C15.2621 2.61081 15.07 2.73938 14.9082 2.90145L2.90822 14.9077C2.74616 15.0694 2.61758 15.2615 2.52986 15.473C2.44213 15.6845 2.39697 15.9112 2.39697 16.1402C2.39697 16.3692 2.44213 16.5959 2.52986 16.8074C2.61758 17.0189 2.74616 17.211 2.90822 17.3727L14.9145 29.3727C15.0762 29.5348 15.2683 29.6633 15.4798 29.7511C15.6913 29.8388 15.918 29.8839 16.147 29.8839C16.3759 29.8839 16.6026 29.8388 16.8141 29.7511C17.0256 29.6633 17.2177 29.5348 17.3795 29.3727L29.3795 17.3727C29.5415 17.211 29.6701 17.0189 29.7578 16.8074C29.8456 16.5959 29.8907 16.3692 29.8907 16.1402C29.8907 15.9112 29.8456 15.6845 29.7578 15.473C29.6701 15.2615 29.5415 15.0694 29.3795 14.9077L29.3732 14.9014ZM15.962 3.9552C16.0085 3.91088 16.0702 3.88615 16.1345 3.88615C16.1987 3.88615 16.2605 3.91088 16.307 3.9552L23.7357 11.3839H20.1345C19.9356 11.3841 19.745 11.4633 19.6045 11.6039L16.1345 15.0739L12.6645 11.6039C12.524 11.4633 12.3333 11.3841 12.1345 11.3839H8.53322L15.962 3.9552ZM3.88447 16.1339C3.88437 16.1019 3.89061 16.0702 3.90284 16.0406C3.91507 16.011 3.93304 15.9841 3.95572 15.9615L7.03322 12.8839H11.8232L15.0732 16.1339L11.8232 19.3839H7.03322L3.95572 16.3064C3.93304 16.2838 3.91507 16.2569 3.90284 16.2273C3.89061 16.1977 3.88437 16.166 3.88447 16.1339ZM16.307 28.3127C16.2605 28.357 16.1987 28.3817 16.1345 28.3817C16.0702 28.3817 16.0085 28.357 15.962 28.3127L8.53322 20.8839H12.1345C12.3333 20.8838 12.524 20.8046 12.6645 20.6639L16.1345 17.1939L19.6045 20.6639C19.745 20.8046 19.9356 20.8838 20.1345 20.8839H23.7357L16.307 28.3127ZM28.3132 16.3064L25.2357 19.3839H20.4457L17.1957 16.1339L20.4457 12.8839H25.2357L28.3132 15.9615C28.3575 16.0079 28.3823 16.0697 28.3823 16.1339C28.3823 16.1982 28.3575 16.26 28.3132 16.3064Z" fill="white"/>
</svg>
