<svg width="32" height="32" viewBox="0 0 32 32" fill="none" xmlns="http://www.w3.org/2000/svg">
<path d="M31.5303 11.4693L26.5303 6.46934C26.3897 6.32889 26.1991 6.25 26.0003 6.25C25.8016 6.25 25.6109 6.32889 25.4703 6.46934L21.0003 10.9393L16.5303 6.46934C16.3897 6.32889 16.1991 6.25 16.0003 6.25C15.8016 6.25 15.6109 6.32889 15.4703 6.46934L11.0003 10.9393L6.53032 6.46934C6.38969 6.32889 6.19907 6.25 6.00032 6.25C5.80157 6.25 5.61094 6.32889 5.47032 6.46934L0.470317 11.4693C0.329866 11.61 0.250977 11.8006 0.250977 11.9993C0.250977 12.1981 0.329866 12.3887 0.470317 12.5293L5.47032 17.5293C5.61094 17.6698 5.80157 17.7487 6.00032 17.7487C6.19907 17.7487 6.38969 17.6698 6.53032 17.5293L11.0003 13.0593L14.9403 16.9993L10.4703 21.4693C10.3299 21.61 10.251 21.8006 10.251 21.9993C10.251 22.1981 10.3299 22.3887 10.4703 22.5293L15.4703 27.5293C15.6109 27.6698 15.8016 27.7487 16.0003 27.7487C16.1991 27.7487 16.3897 27.6698 16.5303 27.5293L21.5303 22.5293C21.6708 22.3887 21.7497 22.1981 21.7497 21.9993C21.7497 21.8006 21.6708 21.61 21.5303 21.4693L17.0603 16.9993L21.0003 13.0593L25.4703 17.5293C25.6109 17.6698 25.8016 17.7487 26.0003 17.7487C26.1991 17.7487 26.3897 17.6698 26.5303 17.5293L31.5303 12.5293C31.6708 12.3887 31.7497 12.1981 31.7497 11.9993C31.7497 11.8006 31.6708 11.61 31.5303 11.4693ZM6.00032 15.9381L2.06157 11.9993L6.00032 8.06059L9.93907 11.9993L6.00032 15.9381ZM16.0003 25.9381L12.0616 21.9993L16.0003 18.0606L19.9391 21.9993L16.0003 25.9381ZM16.0003 15.9381L12.0616 11.9993L16.0003 8.06059L19.9391 11.9993L16.0003 15.9381ZM26.0003 15.9381L22.0616 11.9993L26.0003 8.06059L29.9391 11.9993L26.0003 15.9381Z" fill="white"/>
</svg>
